<svg aria-hidden="true" style="position: absolute; width: 0; height: 0; overflow: hidden;" version="1.1" xmlns="http://www.w3.org/2000/svg" xmlns:xlink="http://www.w3.org/1999/xlink">
<defs>
<symbol id="icon-rs_school_js-3" viewBox="0 0 86 32">
<path d="M49.645 1.077c-1.909 0.229-3.041 0.743-3.838 1.745-0.558 0.703-0.797 1.406-0.797 2.333 0 0.957 0.279 1.675 0.912 2.353 0.817 0.872 1.904 1.381 4.212 1.959 1.346 0.334 1.874 0.523 2.228 0.793 0.663 0.498 0.698 1.411 0.080 1.969-0.797 0.718-2.447 0.608-3.215-0.214-0.294-0.314-0.508-0.768-0.618-1.291l-0.085-0.404-0.15 0.025c-0.080 0.010-0.947 0.070-1.919 0.125-0.972 0.060-1.824 0.115-1.889 0.13-0.115 0.025-0.115 0.040-0.085 0.324 0.125 1.226 0.872 2.647 1.764 3.36 1.022 0.812 2.891 1.241 5.044 1.156 1.336-0.055 2.263-0.249 3.125-0.658 0.723-0.339 1.156-0.678 1.665-1.281l0.239-0.289 0.030 0.189c0.254 1.495 0.907 2.781 1.924 3.803 1.121 1.116 2.687 1.849 4.366 2.049l0.508 0.055-0.274 0.299c-0.618 0.668-1.082 1.47-1.381 2.402-0.304 0.952-0.359 1.381-0.359 2.816 0 1.381 0.065 1.894 0.354 2.776 0.533 1.64 1.68 2.981 3.135 3.674 1.585 0.758 4.267 0.947 6.231 0.434 1.854-0.479 3.285-1.695 4.042-3.429l0.169-0.389v3.863h11.016v-3.389l-6.704-0.025-0.015-5.249-0.010-5.244h-4.287v3.863l-0.169-0.384c-0.862-1.979-2.562-3.235-4.865-3.604-0.284-0.045-0.528-0.085-0.533-0.095-0.010-0.010 0.115-0.1 0.269-0.204 0.872-0.573 1.844-1.45 2.547-2.293 1.894-2.263 2.746-5.214 2.228-7.706-0.548-2.637-2.507-4.645-5.199-5.323-1.121-0.284-2.702-0.329-3.873-0.11-2.308 0.434-4.381 1.535-6.091 3.235-1.037 1.037-1.904 2.318-2.407 3.559-0.065 0.159-0.13 0.289-0.145 0.289s-0.115-0.169-0.219-0.374c-0.125-0.234-0.314-0.493-0.523-0.713-0.917-0.937-2.133-1.436-5.269-2.158-1.196-0.274-1.56-0.444-1.75-0.803-0.15-0.289-0.040-0.822 0.209-1.042 0.269-0.239 0.528-0.314 1.117-0.334 0.488-0.015 0.618-0.005 0.892 0.090 0.678 0.229 1.057 0.668 1.256 1.46l0.060 0.239 0.304-0.025c0.164-0.020 0.932-0.065 1.7-0.105s1.535-0.090 1.71-0.105l0.319-0.030-0.035-0.254c-0.020-0.145-0.090-0.449-0.16-0.683-0.488-1.705-1.585-2.642-3.584-3.045-0.459-0.090-0.743-0.11-1.789-0.12-0.683-0.010-1.326-0.005-1.421 0.005zM68.446 2.248c1.5 0.224 2.851 0.842 3.793 1.735 0.304 0.289 1.062 1.246 1.316 1.675 0.229 0.374 0.503 1.107 0.653 1.735 0.12 0.503 0.13 0.653 0.13 1.555 0 0.892-0.010 1.062-0.135 1.625-0.917 4.307-4.835 7.806-9.356 8.369-0.598 0.070-1.68 0.060-2.293-0.025-3.1-0.444-5.323-2.517-5.867-5.473-0.115-0.628-0.11-1.884 0.005-2.552 0.299-1.67 1.072-3.31 2.183-4.636 0.523-0.623 0.593-0.683 2.084-1.809 1.381-1.037 1.784-1.281 2.692-1.62 0.872-0.324 1.725-0.528 2.642-0.628 0.498-0.055 1.63-0.030 2.153 0.050zM69.104 20.965c0.947 0.234 1.655 0.982 1.929 2.049 0.199 0.788 0.219 2.368 0.045 3.305-0.304 1.63-1.226 2.442-2.766 2.442-0.558 0-0.987-0.1-1.431-0.334-1.072-0.563-1.545-1.839-1.47-3.948 0.065-1.725 0.439-2.612 1.346-3.2 0.643-0.419 1.47-0.528 2.348-0.314z"></path>
<path d="M66.916 5.607c-0.847 0.229-1.839 0.937-2.308 1.645-0.478 0.723-0.379 1.625 0.244 2.188 0.309 0.279 0.603 0.379 1.092 0.379 0.454 0 0.967-0.125 1.695-0.404 0.289-0.115 0.653-0.214 0.807-0.229 0.274-0.030 0.294-0.020 0.464 0.15 0.289 0.289 0.229 0.653-0.174 0.992-0.429 0.369-0.912 0.374-1.336 0.010l-0.209-0.179-0.698 0.558c-0.802 0.638-0.793 0.608-0.294 0.972 0.778 0.573 1.495 0.608 2.472 0.12 1.166-0.588 1.964-1.5 2.044-2.348 0.070-0.797-0.389-1.65-1.042-1.934-0.598-0.259-1.196-0.174-2.567 0.354-0.807 0.314-0.927 0.339-1.097 0.219-0.259-0.179-0.169-0.583 0.194-0.862 0.339-0.259 0.743-0.274 1.032-0.035 0.080 0.070 0.159 0.125 0.179 0.125 0.080 0 1.376-1.062 1.356-1.117-0.010-0.030-0.155-0.16-0.324-0.289-0.484-0.369-0.967-0.469-1.53-0.314z"></path>
<path d="M61.981 8.937c-0.359 0.254-0.703 0.493-0.763 0.538l-0.115 0.085 1.131 1.585c1.151 1.62 1.366 1.969 1.366 2.243 0 0.194-0.164 0.409-0.374 0.498-0.244 0.1-0.478 0.015-0.733-0.274l-0.214-0.244-0.274 0.254c-0.15 0.14-0.449 0.419-0.663 0.618l-0.384 0.364 0.11 0.155c0.169 0.229 0.653 0.573 0.977 0.693 0.598 0.229 1.206 0.125 1.974-0.339 0.553-0.329 0.922-0.708 1.156-1.186 0.184-0.364 0.194-0.419 0.194-0.837 0-0.439-0.010-0.469-0.239-0.947-0.159-0.334-0.603-1.022-1.346-2.079-0.608-0.872-1.117-1.585-1.131-1.585s-0.319 0.204-0.673 0.459z"></path>
<path d="M0.997 8.249v6.953h4.287l0.010-2.831 0.015-2.826 0.354 0.005c0.683 0.015 1.102 0.239 1.48 0.797 0.125 0.189 0.778 1.366 1.45 2.612l1.221 2.268 2.417 0.015c1.755 0.005 2.422-0.005 2.422-0.045 0-0.090-1.989-3.923-2.228-4.302-0.344-0.533-0.887-1.151-1.196-1.356-0.155-0.105-0.444-0.249-0.633-0.324-0.199-0.075-0.319-0.15-0.279-0.159 0.040-0.015 0.244-0.075 0.449-0.135 1.306-0.384 2.248-1.301 2.652-2.592 0.1-0.324 0.115-0.474 0.115-1.146 0-0.902-0.090-1.306-0.439-1.959-0.459-0.862-1.176-1.421-2.158-1.68-0.872-0.229-1.366-0.249-5.787-0.249h-4.152v6.953zM7.826 4.137c0.723 0.095 1.027 0.269 1.256 0.713 0.13 0.259 0.174 0.753 0.090 1.012-0.090 0.274-0.319 0.593-0.518 0.713-0.349 0.219-0.962 0.314-2.208 0.339l-1.161 0.025v-2.851h1.087c0.593 0 1.251 0.025 1.455 0.050z"></path>
<path d="M5.234 17.65c-0.977 0.085-1.894 0.314-2.502 0.623-0.972 0.488-1.695 1.311-2.034 2.313-0.155 0.454-0.194 1.48-0.080 1.944 0.184 0.723 0.628 1.426 1.186 1.879 0.907 0.733 1.824 1.116 3.978 1.655 1.73 0.429 2.253 0.683 2.527 1.216 0.354 0.698-0.020 1.52-0.842 1.839-0.339 0.13-1.131 0.179-1.525 0.090-0.444-0.095-0.807-0.294-1.112-0.593-0.329-0.329-0.508-0.688-0.648-1.291l-0.1-0.434-2.019 0.13c-1.107 0.070-2.029 0.14-2.044 0.155-0.045 0.050 0.125 0.937 0.259 1.361 0.289 0.882 0.912 1.824 1.535 2.328 1.012 0.812 2.617 1.176 4.935 1.122 1.191-0.025 1.735-0.105 2.507-0.359 1.216-0.404 2.034-1.012 2.677-1.989l0.219-0.334 0.324 0.419c0.992 1.271 2.208 1.919 4.097 2.188 0.688 0.1 2.572 0.080 3.19-0.030 2.019-0.359 3.315-1.356 4.212-3.235 0.214-0.444 0.543-1.416 0.493-1.45-0.040-0.025-3.743-1.131-3.753-1.116-0.005 0.010-0.060 0.194-0.12 0.414-0.15 0.538-0.503 1.241-0.783 1.555-0.264 0.299-0.783 0.583-1.216 0.663-0.344 0.065-0.962 0.065-1.306 0-0.414-0.075-0.942-0.359-1.211-0.648-0.603-0.643-0.872-1.869-0.812-3.664 0.050-1.46 0.294-2.188 0.952-2.846 0.538-0.538 1.022-0.723 1.874-0.723 1.126 0 1.989 0.608 2.373 1.675 0.045 0.135 0.090 0.254 0.090 0.259 0.020 0.035 3.743-0.827 3.753-0.867 0.030-0.090-0.329-0.937-0.598-1.401-0.962-1.67-2.248-2.507-4.307-2.811-0.563-0.085-2.353-0.080-2.881 0.005-1.301 0.204-2.338 0.623-3.205 1.286-0.434 0.334-0.942 0.872-1.196 1.271-0.184 0.289-0.259 0.349-0.259 0.219 0-0.14-0.454-0.962-0.683-1.241-0.743-0.897-1.939-1.411-3.649-1.58-0.578-0.055-1.66-0.055-2.298 0.005zM6.52 20.237c0.638 0.105 1.052 0.404 1.331 0.957 0.095 0.194 0.189 0.444 0.209 0.548 0.015 0.11 0.060 0.209 0.095 0.224 0.040 0.015 0.658-0.010 1.376-0.055 0.723-0.045 1.426-0.080 1.57-0.080h0.259l-0.070 0.204c-0.1 0.274-0.259 1.136-0.304 1.605l-0.035 0.384-0.155-0.1c-0.748-0.493-2.059-0.942-4.222-1.441-0.593-0.14-1.176-0.289-1.296-0.334-0.548-0.214-0.832-0.578-0.773-0.992 0.11-0.713 0.942-1.092 2.014-0.922z"></path>
<path d="M48.234 17.65c-2.373 0.274-4.167 1.426-5.159 3.31l-0.234 0.449-0.015-1.784-0.010-1.779h-4.287l-0.010 2.427-0.015 2.432h-4.685l-0.015-2.432-0.010-2.427h-4.287v13.907h4.287v-5.632h4.735v5.632h4.287v-3.614l0.249 0.464c0.768 1.445 1.879 2.417 3.325 2.921 1.844 0.633 4.601 0.628 6.285-0.020 1.974-0.758 3.295-2.333 3.763-4.486 0.449-2.044 0.249-4.456-0.498-5.956-0.967-1.939-2.682-3.075-5.114-3.389-0.623-0.080-1.999-0.090-2.592-0.020zM50.263 20.965c0.942 0.229 1.655 0.987 1.924 2.049 0.259 0.997 0.219 2.811-0.080 3.853-0.349 1.211-1.296 1.894-2.637 1.894-0.857 0-1.55-0.274-2.044-0.802-0.643-0.703-0.917-1.804-0.857-3.484 0.065-1.67 0.389-2.492 1.246-3.12 0.648-0.479 1.52-0.618 2.447-0.389z"></path>
</symbol>
<symbol id="icon-logo-song-bird" viewBox="0 0 49 32">
<path d="M18.421 0.037c-0.043 0.032-0.075 0.704-0.075 1.472v1.408l-0.448 0.064c-0.501 0.064-1.045 0.544-1.045 0.917 0 0.608 0.939 0.747 1.515 0.235l0.352-0.309 0.032-1.504c0.032-1.163 0.075-1.504 0.181-1.504 0.309 0 0.704 0.224 0.8 0.448 0.085 0.224 0.096 0.224 0.096-0.085 0.011-0.363-0.213-0.608-0.875-0.981-0.459-0.267-0.437-0.256-0.533-0.16zM9.888 6.618c-0.725 0.299-1.013 0.48-1.579 0.992-1.675 1.515-2.901 6.027-2.283 8.405 0.523 1.984 2.048 3.84 4.021 4.843 0.469 0.245 1.035 0.469 1.269 0.501 0.224 0.043 0.416 0.128 0.416 0.192s-0.171 0.341-0.363 0.608c-0.395 0.544-0.48 0.565-2.016 0.693-1.088 0.096-2.059-0.096-3.381-0.672-0.651-0.288-1.419-0.533-1.867-0.597l-0.747-0.117 0.427-0.096c0.555-0.139 1.643 0.043 2.475 0.405 0.331 0.149 0.693 0.267 0.8 0.245 0.181-0.032 0.181-0.053-0.032-0.459-0.331-0.629-0.725-1.013-1.323-1.291-0.885-0.427-1.984-0.288-3.573 0.459-0.437 0.203-1.088 0.427-1.44 0.501l-0.64 0.139 0.437 0.427c0.245 0.235 0.672 0.533 0.96 0.672 0.459 0.224 0.672 0.267 1.696 0.267 0.651 0 1.461-0.043 1.824-0.096 0.608-0.085 0.693-0.064 1.536 0.309 0.501 0.213 1.131 0.448 1.419 0.523 0.384 0.096 0.48 0.16 0.373 0.245-0.288 0.224-0.885 0.352-1.675 0.352-1.237 0-1.867 0.437-2.197 1.525l-0.149 0.491 0.459-0.053c0.256-0.043 0.811 0.011 1.28 0.107 1.963 0.405 2.997 0.021 3.349-1.248 0.107-0.363 0.096-0.395-0.107-0.395-0.128 0-0.544 0.181-0.928 0.395-0.789 0.437-1.376 0.587-1.931 0.491-0.352-0.064-0.331-0.075 0.331-0.203 0.405-0.075 0.896-0.256 1.12-0.405 0.235-0.149 0.587-0.395 0.8-0.533 0.832-0.555 1.525-0.608 3.477-0.235 1.867 0.363 2.88 0.491 3.904 0.491l0.875 0.011 0.565 0.896c1.045 1.653 2.624 3.253 3.968 4.032 0.523 0.299 1.461 0.576 1.568 0.459 0.043-0.043-0.139-0.299-0.405-0.576s-0.555-0.597-0.64-0.715c-0.192-0.277 1.184 0.939 1.877 1.643 0.576 0.597 1.12 0.821 1.728 0.704 0.192-0.032 0.352-0.075 0.352-0.085s-0.384-0.427-0.864-0.928c-1.195-1.259-2.656-3.051-3.307-4.053l-0.555-0.853-0.843-0.181c-0.459-0.107-0.832-0.213-0.832-0.256 0-0.032 0.544 0.011 1.205 0.085 1.312 0.149 1.547 0.117 1.664-0.213 0.085-0.235-0.053-1.12-0.213-1.312-0.075-0.085-1.109-0.107-3.616-0.085-3.125 0.032-4.48-0.032-4.683-0.224-0.053-0.064 0.736-0.907 0.853-0.907 0.032 0 0.288 0.192 0.565 0.437l0.491 0.437 2.155-0.021c1.184 0 2.176-0.021 2.197-0.053 0.021-0.021-0.203-0.512-0.501-1.099l-0.555-1.056-0.64-0.075c-0.939-0.107-2.379-0.555-3.221-0.992-1.216-0.64-2.645-2.144-3.019-3.179-0.043-0.117 0.288 0.181 0.747 0.661 0.907 0.96 1.717 1.547 2.88 2.101 1.44 0.683 3.776 1.173 5.259 1.109l0.768-0.032-1.248-2.027c-3.125-5.056-4.075-6.208-5.749-7.008-0.672-0.309-1.312-0.843-1.312-1.088 0-0.064 0.075-0.224 0.16-0.352 0.139-0.192 0.288-0.245 0.811-0.267l0.651-0.032-1.429-0.832 0.949-0.96c0.821-0.832 0.896-0.939 0.629-0.875-0.181 0.032-0.587 0.224-0.907 0.416-0.907 0.523-0.928 0.533-1.248 0.117-0.661-0.875-2.048-1.152-3.275-0.651zM13.323 21.711c0.128 0.085 0.107 0.171-0.128 0.533-0.245 0.373-0.341 0.437-0.661 0.437-0.203 0-0.373-0.032-0.373-0.075 0-0.096 0.875-0.992 0.96-0.992 0.032 0 0.117 0.043 0.203 0.096zM20.725 6.607l-1.301 0.224-0.032 1.333-0.032 1.344-0.405 0.064c-0.512 0.085-0.928 0.469-0.928 0.864 0 0.565 0.704 0.661 1.312 0.181 0.288-0.213 0.288-0.224 0.288-1.643 0-0.789 0.043-1.451 0.096-1.493 0.203-0.117 2.304-0.459 2.389-0.384 0.043 0.043 0.064 0.533 0.053 1.088l-0.032 1.003-0.469 0.064c-0.971 0.128-1.237 1.269-0.309 1.269 0.384 0 0.885-0.256 0.981-0.48 0.032-0.096 0.064-0.971 0.064-1.931 0-1.6-0.011-1.749-0.181-1.739-0.107 0.011-0.779 0.117-1.493 0.235zM26.805 13.018c-0.405 0.181-0.565 0.459-0.565 0.949 0 0.512 0.341 0.789 1.227 0.971 0.405 0.085 0.789 0.235 0.864 0.331 0.171 0.224 0.075 0.565-0.203 0.704-0.309 0.171-1.109 0.053-1.387-0.203-0.203-0.181-0.267-0.203-0.469-0.085-0.224 0.117-0.235 0.139-0.075 0.363 0.373 0.533 1.451 0.725 2.229 0.405 0.427-0.181 0.587-0.448 0.587-1.003 0-0.576-0.32-0.843-1.216-1.024-1.013-0.213-1.216-0.405-0.811-0.811 0.256-0.256 0.821-0.277 1.152-0.043 0.267 0.181 0.811 0.117 0.747-0.085-0.171-0.491-1.419-0.768-2.080-0.469zM38.507 14.735v1.76h1.184c1.163 0 1.184 0 1.493-0.309 0.384-0.395 0.416-0.875 0.064-1.227-0.245-0.245-0.245-0.256-0.053-0.491 0.213-0.267 0.245-0.661 0.075-0.981-0.192-0.352-0.757-0.512-1.803-0.512h-0.96v1.76zM40.512 13.679c0.565 0.395 0.149 0.789-0.843 0.789h-0.523v-0.96h0.565c0.331 0 0.651 0.064 0.8 0.171zM40.651 15.109c0.117 0.064 0.203 0.224 0.203 0.373 0 0.352-0.288 0.48-1.056 0.48h-0.651v-0.96h0.651c0.352 0 0.736 0.053 0.853 0.107zM42.048 13.071c-0.245 0.149-0.107 0.491 0.224 0.523 0.277 0.032 0.299 0.011 0.267-0.267-0.032-0.309-0.245-0.416-0.491-0.256zM47.36 13.679v0.693l-0.235-0.16c-0.363-0.256-1.088-0.213-1.419 0.064-0.512 0.448-0.533 1.472-0.032 1.973 0.341 0.341 0.928 0.427 1.376 0.203 0.299-0.149 0.363-0.149 0.437-0.021 0.053 0.085 0.171 0.128 0.299 0.096 0.203-0.053 0.213-0.149 0.213-1.803v-1.749h-0.64v0.704zM47.147 14.789c0.277 0.277 0.267 0.64-0.011 1.003-0.587 0.747-1.653-0.192-1.099-0.981 0.213-0.309 0.811-0.32 1.109-0.021zM37.483 13.946c-0.043 0.064-0.213 0.085-0.416 0.053-0.533-0.107-1.173 0.192-1.376 0.629-0.437 0.917 0.128 1.867 1.099 1.867 0.576 0 0.853 0.533 0.459 0.885-0.288 0.267-0.736 0.224-1.024-0.085-0.245-0.256-0.704-0.373-0.704-0.16 0 0.245 0.256 0.619 0.533 0.779 0.565 0.341 1.547 0.149 1.813-0.341 0.181-0.352 0.128-0.949-0.107-1.184l-0.213-0.213 0.213-0.213c0.288-0.288 0.331-1.056 0.085-1.355-0.075-0.096-0.075-0.181 0.021-0.299 0.107-0.128 0.107-0.192 0-0.32-0.16-0.192-0.277-0.203-0.384-0.043zM37.045 14.586c0.309 0.171 0.395 0.299 0.395 0.651 0 0.363-0.341 0.725-0.683 0.725-0.363 0-0.736-0.491-0.651-0.853 0.064-0.267 0.416-0.64 0.608-0.64 0.053 0 0.203 0.053 0.331 0.117zM30.101 14.213c-0.128 0.085-0.309 0.299-0.395 0.469-0.597 1.141 0.619 2.347 1.76 1.76 0.736-0.384 0.853-1.536 0.224-2.101-0.267-0.235-0.437-0.299-0.843-0.299-0.288 0-0.608 0.075-0.747 0.171zM31.253 14.682c0.448 0.245 0.32 1.216-0.181 1.344-0.352 0.096-0.757-0.107-0.885-0.437-0.256-0.661 0.427-1.248 1.067-0.907zM32.64 15.269v1.227h0.267c0.256 0 0.267-0.021 0.267-0.725 0-0.853 0.181-1.195 0.64-1.195 0.501 0 0.64 0.235 0.64 1.131v0.789h0.32c0.32 0 0.32 0 0.32-0.629 0-0.864-0.096-1.248-0.384-1.557s-0.917-0.363-1.291-0.107c-0.203 0.139-0.235 0.139-0.288 0-0.032-0.085-0.16-0.16-0.277-0.16-0.203 0-0.213 0.064-0.213 1.227zM42.027 15.269v1.227h0.533v-2.453h-0.533v1.227zM43.2 15.269v1.227h0.267c0.256 0 0.267-0.021 0.267-0.725 0-0.949 0.181-1.237 0.747-1.163 0.341 0.043 0.416 0.011 0.512-0.192 0.096-0.192 0.085-0.267-0.043-0.309-0.288-0.107-0.843-0.075-0.992 0.064-0.117 0.107-0.149 0.107-0.192 0-0.032-0.064-0.171-0.128-0.309-0.128-0.256 0-0.256 0-0.256 1.227z"></path>
</symbol>
<symbol id="icon-play" viewBox="0 0 32 32">
<path d="M6 4l20 12-20 12z"></path>
</symbol>
<symbol id="icon-pause" viewBox="0 0 32 32">
<path d="M4 4h10v24h-10zM18 4h10v24h-10z"></path>
</symbol>
<symbol id="icon-github" viewBox="0 0 32 32">
<path d="M16 0.395c-8.836 0-16 7.163-16 16 0 7.069 4.585 13.067 10.942 15.182 0.8 0.148 1.094-0.347 1.094-0.77 0-0.381-0.015-1.642-0.022-2.979-4.452 0.968-5.391-1.888-5.391-1.888-0.728-1.849-1.776-2.341-1.776-2.341-1.452-0.993 0.11-0.973 0.11-0.973 1.606 0.113 2.452 1.649 2.452 1.649 1.427 2.446 3.743 1.739 4.656 1.33 0.143-1.034 0.558-1.74 1.016-2.14-3.554-0.404-7.29-1.777-7.29-7.907 0-1.747 0.625-3.174 1.649-4.295-0.166-0.403-0.714-2.030 0.155-4.234 0 0 1.344-0.43 4.401 1.64 1.276-0.355 2.645-0.532 4.005-0.539 1.359 0.006 2.729 0.184 4.008 0.539 3.054-2.070 4.395-1.64 4.395-1.64 0.871 2.204 0.323 3.831 0.157 4.234 1.026 1.12 1.647 2.548 1.647 4.295 0 6.145-3.743 7.498-7.306 7.895 0.574 0.497 1.085 1.47 1.085 2.963 0 2.141-0.019 3.864-0.019 4.391 0 0.426 0.288 0.925 1.099 0.768 6.354-2.118 10.933-8.113 10.933-15.18 0-8.837-7.164-16-16-16z"></path>
</symbol>
</defs>
</svg>
